<?xml version="1.0" encoding="UTF-8" ?>
<svg version="1.1" width="9" height="9" xmlns="http://www.w3.org/2000/svg" shape-rendering="crispEdges">
<rect x="0" y="0" width="1" height="1" fill="#FFFFFF" />
<rect x="1" y="0" width="1" height="1" fill="#FFFFFF" />
<rect x="2" y="0" width="1" height="1" fill="#FFFFFF" />
<rect x="3" y="0" width="1" height="1" fill="#FFFFFF" />
<rect x="4" y="0" width="1" height="1" fill="#FFFFFF" />
<rect x="5" y="0" width="1" height="1" fill="#FFFFFF" />
<rect x="6" y="0" width="1" height="1" fill="#FFFFFF" />
<rect x="7" y="0" width="1" height="1" fill="#FFFFFF" />
<rect x="0" y="1" width="1" height="1" fill="#353540" />
<rect x="1" y="1" width="1" height="1" fill="#353540" />
<rect x="2" y="1" width="1" height="1" fill="#353540" />
<rect x="3" y="1" width="1" height="1" fill="#353540" />
<rect x="4" y="1" width="1" height="1" fill="#353540" />
<rect x="5" y="1" width="1" height="1" fill="#353540" />
<rect x="6" y="1" width="1" height="1" fill="#353540" />
<rect x="7" y="1" width="1" height="1" fill="#353540" />
<rect x="8" y="1" width="1" height="1" fill="#FFFFFF" />
<rect x="0" y="2" width="1" height="1" fill="#A88B79" />
<rect x="1" y="2" width="1" height="1" fill="#353540" />
<rect x="2" y="2" width="1" height="1" fill="#353540" />
<rect x="3" y="2" width="1" height="1" fill="#353540" />
<rect x="4" y="2" width="1" height="1" fill="#353540" />
<rect x="5" y="2" width="1" height="1" fill="#BFB8B4" />
<rect x="6" y="2" width="1" height="1" fill="#353540" />
<rect x="7" y="2" width="1" height="1" fill="#353540" />
<rect x="8" y="2" width="1" height="1" fill="#FFFFFF" />
<rect x="0" y="3" width="1" height="1" fill="#A88B79" />
<rect x="1" y="3" width="1" height="1" fill="#353540" />
<rect x="2" y="3" width="1" height="1" fill="#353540" />
<rect x="3" y="3" width="1" height="1" fill="#353540" />
<rect x="4" y="3" width="1" height="1" fill="#918D8D" />
<rect x="5" y="3" width="1" height="1" fill="#636167" />
<rect x="6" y="3" width="1" height="1" fill="#918D8D" />
<rect x="7" y="3" width="1" height="1" fill="#353540" />
<rect x="8" y="3" width="1" height="1" fill="#FFFFFF" />
<rect x="1" y="4" width="1" height="1" fill="#A88B79" />
<rect x="2" y="4" width="1" height="1" fill="#353540" />
<rect x="3" y="4" width="1" height="1" fill="#353540" />
<rect x="4" y="4" width="1" height="1" fill="#353540" />
<rect x="5" y="4" width="1" height="1" fill="#918D8D" />
<rect x="6" y="4" width="1" height="1" fill="#353540" />
<rect x="7" y="4" width="1" height="1" fill="#353540" />
<rect x="8" y="4" width="1" height="1" fill="#FFFFFF" />
<rect x="1" y="5" width="1" height="1" fill="#A88B79" />
<rect x="2" y="5" width="1" height="1" fill="#353540" />
<rect x="3" y="5" width="1" height="1" fill="#353540" />
<rect x="4" y="5" width="1" height="1" fill="#353540" />
<rect x="5" y="5" width="1" height="1" fill="#353540" />
<rect x="6" y="5" width="1" height="1" fill="#353540" />
<rect x="7" y="5" width="1" height="1" fill="#353540" />
<rect x="8" y="5" width="1" height="1" fill="#FFFFFF" />
<rect x="2" y="6" width="1" height="1" fill="#A88B79" />
<rect x="3" y="6" width="1" height="1" fill="#353540" />
<rect x="4" y="6" width="1" height="1" fill="#353540" />
<rect x="5" y="6" width="1" height="1" fill="#353540" />
<rect x="6" y="6" width="1" height="1" fill="#353540" />
<rect x="7" y="6" width="1" height="1" fill="#353540" />
<rect x="8" y="6" width="1" height="1" fill="#FFFFFF" />
<rect x="3" y="7" width="1" height="1" fill="#A88B79" />
<rect x="4" y="7" width="1" height="1" fill="#A88B79" />
<rect x="5" y="7" width="1" height="1" fill="#353540" />
<rect x="6" y="7" width="1" height="1" fill="#353540" />
<rect x="7" y="7" width="1" height="1" fill="#353540" />
<rect x="8" y="7" width="1" height="1" fill="#FFFFFF" />
<rect x="5" y="8" width="1" height="1" fill="#A88B79" />
<rect x="6" y="8" width="1" height="1" fill="#A88B79" />
<rect x="7" y="8" width="1" height="1" fill="#353540" />
<rect x="8" y="8" width="1" height="1" fill="#FFFFFF" />
</svg>